<svg width="56" height="56" viewBox="0 0 56 56" fill="none" xmlns="http://www.w3.org/2000/svg">
<g clip-path="url(#clip0_3_362)">
<path fill-rule="evenodd" clip-rule="evenodd" d="M30.1055 21.459L36.4663 27.9994L30.1055 34.5397L29.3887 33.8425L34.5851 28.4994H19.918V27.4994H34.5851L29.3887 22.1562L30.1055 21.459Z" fill="#045CFC"/>
<path fill-rule="evenodd" clip-rule="evenodd" d="M28 55C42.9117 55 55 42.9117 55 28C55 13.0883 42.9117 1 28 1C13.0883 1 1 13.0883 1 28C1 42.9117 13.0883 55 28 55ZM28 56C43.464 56 56 43.464 56 28C56 12.536 43.464 0 28 0C12.536 0 0 12.536 0 28C0 43.464 12.536 56 28 56Z" fill="#045CFC"/>
</g>
<defs>
<clipPath id="clip0_3_362">
<rect width="56" height="56" fill="white"/>
</clipPath>
</defs>
</svg>
